<?xml version="1.0" encoding="UTF-8" standalone="no"?>
<svg
   xmlns:dc="http://purl.org/dc/elements/1.1/"
   xmlns:cc="http://creativecommons.org/ns#"
   xmlns:rdf="http://www.w3.org/1999/02/22-rdf-syntax-ns#"
   xmlns:svg="http://www.w3.org/2000/svg"
   xmlns="http://www.w3.org/2000/svg"
   xmlns:sodipodi="http://sodipodi.sourceforge.net/DTD/sodipodi-0.dtd"
   xmlns:inkscape="http://www.inkscape.org/namespaces/inkscape"
   id="svg8"
   version="1.1"
   viewBox="0 0 132.29167 132.29167"
   height="132.29167mm"
   width="132.29167mm"
   sodipodi:docname="s-icon-blue-FINAL.svg"
   inkscape:version="0.92.3 (2405546, 2018-03-11)">
  <sodipodi:namedview
     pagecolor="#ffffff"
     bordercolor="#666666"
     borderopacity="1"
     objecttolerance="10"
     gridtolerance="10"
     guidetolerance="10"
     inkscape:pageopacity="0"
     inkscape:pageshadow="2"
     inkscape:window-width="1920"
     inkscape:window-height="1016"
     id="namedview77"
     showgrid="false"
     inkscape:zoom="0.16687719"
     inkscape:cx="-37.073518"
     inkscape:cy="856.2939"
     inkscape:window-x="0"
     inkscape:window-y="27"
     inkscape:window-maximized="1"
     inkscape:current-layer="svg8" />
  <defs
     id="defs2">
    <filter
       height="1.1434337"
       y="-0.071716845"
       width="1.0805933"
       x="-0.04029664"
       id="filter924"
       style="color-interpolation-filters:sRGB">
      <feGaussianBlur
         id="feGaussianBlur926"
         stdDeviation="0.36213689" />
    </filter>
  </defs>
  <metadata
     id="metadata5">
    <rdf:RDF>
      <cc:Work
         rdf:about="">
        <dc:format>image/svg+xml</dc:format>
        <dc:type
           rdf:resource="http://purl.org/dc/dcmitype/StillImage" />
        <dc:title />
      </cc:Work>
    </rdf:RDF>
  </metadata>
  <rect
     y="-6.152344e-07"
     x="3.2788087e-06"
     height="132.29167"
     width="132.29167"
     id="rect226"
     style="opacity:1;fill:#e3ebf0;fill-opacity:1;stroke:none;stroke-width:0.1984375;stroke-linecap:butt;stroke-linejoin:bevel;stroke-miterlimit:4;stroke-dasharray:none;stroke-dashoffset:0;stroke-opacity:1" />
  <path
     inkscape:connector-curvature="0"
     style="fill:#5885a5;fill-opacity:1;stroke:none;stroke-width:0.37476394px;stroke-linecap:butt;stroke-linejoin:miter;stroke-opacity:1"
     d="m 0.74952,91.04664 0.93691,-4.87193 3.93503,-4.87193 1.49905,-8.43219 1.49905,-2.81073 0.56215,-3.93502 1.68643,-1.31167 v -3.74764 l 2.81074,-1.68644 1.12429,6.55837 -1.49905,3.56026 1.49905,5.05931 -3.37287,26.983 2.43596,-2.43596 1.49905,-12.92936 1.68645,-2.24858 1.499046,-13.67889 2.061204,6.55837 2.998116,-0.93691 v -2.24858 l -1.686444,-0.74953 -0.562139,-3.74764 3.747634,-4.30978 1.499052,-9.18172 -2.810723,-2.99811 1.686431,-3.93502 2.248583,2.99811 0.749533,-3.93502 -2.435963,-4.68455 2.248583,-6.74575 v 2.62335 l 0.936913,1.12429 1.124291,-1.68644 0.37476,-6.37099 0.562153,5.80884 1.499051,3.1855 0.936912,-0.93691 0.374759,-3.37288 0.18738,13.11674 2.248583,-0.18738 0.936913,3.74764 8.994334,-6.18361 3.560255,-37.47639 7.870044,-5.99622 -1.87382,23.98489 8.244809,2.43596 V 6.91214 l 5.43408,13.4915 4.1224,43.66 3.18549,-28.10729 2.99812,-2.43597 -1.87382,-3.74764 2.99811,-3.37288 1.12429,-10.49339 1.68644,-1.49905 2.81073,2.99811 0.18738,7.49528 2.43596,3.74764 -1.31167,3.93502 2.99811,4.68455 0.56215,13.86626 1.12429,1.1243 2.62334,20.61201 0.74954,-0.37476 -1.1243,-14.80318 1.68643,-2.24858 3.37288,0.74953 0.56215,-1.31168 -1.31167,-9.93124 6.1836,-8.61957 10.11863,9.18171 6.93313,33.354 3.93502,-7.87005 5.80884,1.12429 v 60.17061 H 0 V 93.66999 Z"
     id="path228" />
  <g
     transform="matrix(5.1953301,0,0,5.1953301,-300.95892,-743.48105)"
     id="g250">
    <path
       inkscape:connector-curvature="0"
       id="path230"
       d="m 80.806818,157.33954 0.637838,-3.26005 -11.386533,-0.0236 c 0,0 -4.015997,0.30711 -7.9375,1.34654 l -1.133929,5.66965 c 10.677827,0.96856 10.110863,2.83482 10.110863,2.83482 l -2.669458,-0.0472 0.236242,-0.85044 h -8.079242 l -0.708706,3.14192 11.126674,0.0236 c 3.614397,-0.18899 8.150111,-1.3938 8.150111,-1.3938 l 1.039435,-4.84281 c -2.598586,-1.11031 -6.094865,-2.38598 -10.181733,-2.76395 0,0 0.165365,-0.73233 2.527716,-0.89769 l -0.0945,0.99218 z"
       style="fill:#000000;fill-opacity:1;stroke:none;stroke-width:0.26458332px;stroke-linecap:butt;stroke-linejoin:miter;stroke-opacity:1;filter:url(#filter924)" />
    <path
       inkscape:connector-curvature="0"
       style="fill:#0194fc;fill-opacity:1;stroke:none;stroke-width:0.26458332px;stroke-linecap:butt;stroke-linejoin:miter;stroke-opacity:1"
       d="m 80.464739,156.95068 0.637838,-3.26005 -11.386533,-0.0236 c 0,0 -4.015997,0.30711 -7.9375,1.34654 l -1.133929,5.66965 c 10.677827,0.96856 10.110863,2.83482 10.110863,2.83482 l -2.669458,-0.0472 0.236242,-0.85044 H 60.24302 l -0.708706,3.14192 11.126674,0.0236 c 3.614397,-0.18899 8.150111,-1.3938 8.150111,-1.3938 l 1.039435,-4.84281 c -2.598586,-1.11031 -6.094865,-2.38598 -10.181733,-2.76395 0,0 0.165365,-0.73233 2.527716,-0.89769 l -0.0945,0.99218 z"
       id="path232" />
    <path
       inkscape:connector-curvature="0"
       id="path234"
       d="m 80.165113,154.34633 0.937464,-0.6557 -11.414489,-0.10024 c 0,0 -4.015997,0.30711 -7.9375,1.34654 l -1.105973,5.74629 0.846118,-0.64359 1.027623,-4.31129 c 0,0 3.779756,-1.48829 12.520456,-1.37017 z"
       style="fill:#0052b1;fill-opacity:1;stroke:none;stroke-width:0.26458332px;stroke-linecap:butt;stroke-linejoin:miter;stroke-opacity:1" />
    <path
       inkscape:connector-curvature="0"
       style="fill:#0052b1;fill-opacity:1;stroke:none;stroke-width:0.26458332px;stroke-linecap:butt;stroke-linejoin:miter;stroke-opacity:1"
       d="m 59.534314,165.76232 0.65245,-0.48823 0.416601,-2.03457 6.915598,-0.0334 0.803299,-0.58572 H 60.24302 Z"
       id="path236" />
    <path
       inkscape:connector-curvature="0"
       style="fill:#0052b1;fill-opacity:1;stroke:none;stroke-width:0.26458332px;stroke-linecap:butt;stroke-linejoin:miter;stroke-opacity:1"
       d="m 68.938834,157.35959 0.729972,-0.57423 c 4.142678,0.3842 8.407303,1.89386 10.161259,2.77919 l -0.918742,0.21715 c -1.436574,-0.71829 -4.860959,-1.9711 -9.972489,-2.42211 z"
       id="path238" />
    <path
       inkscape:connector-curvature="0"
       style="fill:#0052b1;fill-opacity:1;stroke:none;stroke-width:0.26458332px;stroke-linecap:butt;stroke-linejoin:miter;stroke-opacity:1"
       d="m 68.124057,163.47005 -0.154076,0.6047 2.505651,0.1002 c 0.818512,0.0668 0.768398,-0.86863 0.768398,-0.86863 l -0.488552,0.21172 z"
       id="path240" />
    <path
       inkscape:connector-curvature="0"
       style="fill:#4eb9fe;fill-opacity:1;stroke:none;stroke-width:0.26458332px;stroke-linecap:butt;stroke-linejoin:miter;stroke-opacity:1"
       d="m 59.534314,165.76232 0.65245,-0.48823 10.488313,-0.049 c 3.257348,-0.23386 6.983426,-1.28404 7.417739,-1.41767 l 0.818507,-4.02576 0.918742,-0.21715 -1.018966,4.82757 c -2.66461,0.7102 -5.607271,1.28285 -8.257694,1.41091 z"
       id="path242" />
    <path
       inkscape:connector-curvature="0"
       style="fill:#4eb9fe;fill-opacity:1;stroke:none;stroke-width:0.26458332px;stroke-linecap:butt;stroke-linejoin:miter;stroke-opacity:1"
       d="m 81.102577,153.69063 -0.937466,0.6557 -0.318341,1.92749 -7.121086,0.14302 0.284294,-0.95241 c -2.123515,-0.2056 -3.919507,0.50097 -4.071144,1.89516 l 0.729972,-0.57423 c 0.06682,-0.16704 0.406258,-0.74735 2.527711,-0.89769 l -0.09449,0.99218 8.362722,0.0708 z"
       id="path244" />
    <path
       inkscape:connector-curvature="0"
       style="fill:#4eb9fe;fill-opacity:1;stroke:none;stroke-width:0.26458332px;stroke-linecap:butt;stroke-linejoin:miter;stroke-opacity:1"
       d="m 60.644615,160.68322 0.846117,-0.64358 c 6.665034,1.18601 9.419211,1.77999 9.753298,3.26668 l -0.488552,0.21172 c -0.291646,-1.71784 -6.603785,-2.4999 -10.110863,-2.83482 z"
       id="path246" />
    <path
       inkscape:connector-curvature="0"
       style="fill:#4eb9fe;fill-opacity:1;stroke:none;stroke-width:0.26458332px;stroke-linecap:butt;stroke-linejoin:miter;stroke-opacity:1"
       d="m 68.322262,162.6204 -0.803299,0.58572 c 0,0 0.133636,0.95215 0.451018,0.86863 l 0.154076,-0.6047 -0.03804,7.9e-4 z"
       id="path248" />
  </g>
</svg>
