<?xml version="1.0" encoding="UTF-8" standalone="no"?>
<svg
   xmlns:dc="http://purl.org/dc/elements/1.1/"
   xmlns:cc="http://creativecommons.org/ns#"
   xmlns:rdf="http://www.w3.org/1999/02/22-rdf-syntax-ns#"
   xmlns:svg="http://www.w3.org/2000/svg"
   xmlns="http://www.w3.org/2000/svg"
   width="72"
   height="72"
   viewBox="0 0 19.049999 19.049999"
   version="1.1"
   id="svg8">
  <defs
     id="defs2">
    <filter
       style="color-interpolation-filters:sRGB"
       id="filter924"
       x="-0.04029664"
       width="1.0805933"
       y="-0.071716845"
       height="1.1434337">
      <feGaussianBlur
         stdDeviation="0.36213689"
         id="feGaussianBlur926" />
    </filter>
    <filter
       style="color-interpolation-filters:sRGB"
       id="filter1266"
       x="-0.013758697"
       width="1.0275174"
       y="-0.093878798"
       height="1.1877576">
      <feGaussianBlur
         stdDeviation="0.5804166"
         id="feGaussianBlur1268" />
    </filter>
    <filter
       style="color-interpolation-filters:sRGB"
       id="filter1274"
       x="-0.0061783609"
       width="1.0123568"
       y="-0.20783821"
       height="1.4156764">
      <feGaussianBlur
         stdDeviation="0.24370224"
         id="feGaussianBlur1276" />
    </filter>
  </defs>
  <metadata
     id="metadata5">
    <rdf:RDF>
      <cc:Work
         rdf:about="">
        <dc:format>image/svg+xml</dc:format>
        <dc:type
           rdf:resource="http://purl.org/dc/dcmitype/StillImage" />
        <dc:title></dc:title>
      </cc:Work>
    </rdf:RDF>
  </metadata>
  <g
     style="fill:#4d4d4d"
     transform="matrix(0.14399999,0,0,0.14399999,-127.79608,-23.29012)"
     id="g1460">
    <g
       style="fill:#4d4d4d"
       transform="translate(169.12816,147.37292)"
       id="g1419">
      <path
         id="path1409"
         transform="matrix(1.8373843,0,0,1.8373843,718.34468,14.364036)"
         d="M 36 1.984375 C 17.226188 1.984375 1.984375 17.226182 1.984375 36 C 1.984375 54.773821 17.226188 70.015625 36 70.015625 C 54.773827 70.015625 70.015625 54.773821 70.015625 36 C 70.015625 17.226182 54.773827 1.984375 36 1.984375 z M 36 4.1054688 C 53.627716 4.1054688 67.894531 18.372289 67.894531 36 C 67.894531 38.739002 67.550344 41.395812 66.902344 43.931641 L 65.068359 43.578125 L 63.222656 47.271484 L 59.96875 31.619141 L 55.220703 27.310547 L 52.318359 31.355469 L 52.933594 36.015625 L 52.669922 36.630859 L 51.087891 36.279297 L 50.296875 37.333984 L 50.824219 44.28125 L 50.472656 44.457031 L 49.240234 34.785156 L 48.712891 34.255859 L 48.449219 27.75 L 47.042969 25.550781 L 47.658203 23.705078 L 46.515625 21.945312 L 46.427734 18.427734 L 45.109375 17.021484 L 44.316406 17.724609 L 43.789062 22.650391 L 42.382812 24.232422 L 43.261719 25.990234 L 41.855469 27.134766 L 40.359375 40.324219 L 38.425781 19.835938 L 35.875 13.503906 L 35.875 24.408203 L 32.005859 23.265625 L 32.884766 12.009766 L 29.191406 14.824219 L 27.521484 32.410156 L 23.8125 34.927734 L 23.615234 39.257812 L 23.484375 39.34375 L 23.455078 35.464844 L 22.861328 33.552734 L 21.806641 33.640625 L 21.71875 27.486328 L 21.542969 29.068359 L 21.103516 29.507812 L 20.398438 28.013672 L 20.134766 25.287109 L 19.958984 28.277344 L 19.431641 29.068359 L 18.992188 28.541016 L 18.992188 27.310547 L 17.9375 30.474609 L 19.080078 32.673828 L 18.728516 34.519531 L 17.673828 33.113281 L 16.882812 34.958984 L 18.201172 36.367188 L 17.498047 40.675781 L 15.738281 42.699219 L 16.001953 44.457031 L 16.792969 44.808594 L 16.792969 45.863281 L 15.386719 46.302734 L 14.419922 43.226562 L 13.767578 47.751953 L 12.720703 47.220703 L 12.662109 45.248047 L 11.957031 42.873047 L 12.662109 41.203125 L 12.132812 38.125 L 10.814453 38.917969 L 10.814453 40.675781 L 10.023438 41.291016 L 9.7597656 43.138672 L 9.0566406 44.457031 L 8.3515625 48.414062 L 7.2324219 49.800781 C 5.2277691 45.625496 4.1054688 40.944907 4.1054688 36 C 4.1054688 18.372289 18.372298 4.1054688 36 4.1054688 z M 22.089844 52.238281 L 23.253906 55.804688 L 27.402344 55.804688 L 23.873047 57.806641 L 25.763672 61.591797 L 22.162109 59.080078 L 18.777344 61.445312 L 20.197266 57.515625 L 16.958984 55.804688 L 20.851562 55.804688 L 22.089844 52.238281 z M 49.728516 52.238281 L 50.892578 55.804688 L 55.041016 55.804688 L 51.511719 57.806641 L 53.404297 61.591797 L 49.800781 59.080078 L 46.417969 61.445312 L 47.835938 57.515625 L 44.597656 55.804688 L 48.490234 55.804688 L 49.728516 52.238281 z M 35.908203 55.611328 L 37.074219 59.177734 L 41.222656 59.177734 L 37.691406 61.179688 L 39.583984 64.962891 L 35.982422 62.453125 L 32.597656 64.818359 L 34.015625 60.888672 L 30.777344 59.177734 L 34.671875 59.177734 L 35.908203 55.611328 z "
         style="fill:#4d4d4d;fill-opacity:1;stroke:none;stroke-width:0.17586501px;stroke-linecap:butt;stroke-linejoin:miter;stroke-opacity:1" />
      <g
         style="fill:#4d4d4d"
         transform="translate(0.6547947)"
         id="g1417" />
    </g>
  </g>
</svg>
